{
  "accessors": [
    {
      "bufferView": 2,
      "componentType": 5126,
      "count": 36844,
      "max": [
        1.0326718091964722,
        0.8185830116271973,
        1.3823444843292236
      ],
      "min": [
        -0.7701901197433472,
        -1.8541276454925537,
        -1.3823444843292236
      ],
      "type": "VEC3"
    },
    {
      "bufferView": 2,
      "byteOffset": 442128,
      "componentType": 5126,
      "count": 36844,
      "max": [
        1.0,
        0.9999989867210388,
        0.9999956488609314
      ],
      "min": [
        -0.9999998807907104,
        -0.9994027018547058,
        -0.9999971389770508
      ],
      "type": "VEC3"
    },
    {
      "bufferView": 1,
      "componentType": 5126,
      "count": 36844,
      "max": [
        0.9998695850372314,
        0.999112606048584
      ],
      "min": [
        3.5092165489913896e-05,
        0.00012145408254582435
      ],
      "type": "VEC2"
    },
    {
      "bufferView": 1,
      "byteOffset": 294752,
      "componentType": 5126,
      "count": 36844,
      "max": [
        0.9998695850372314,
        0.999112606048584
      ],
      "min": [
        3.5092165489913896e-05,
        0.00012145408254582435
      ],
      "type": "VEC2"
    },
    {
      "bufferView": 1,
      "byteOffset": 589504,
      "componentType": 5126,
      "count": 36844,
      "max": [
        0.9998695850372314,
        0.999112606048584
      ],
      "min": [
        3.5092165489913896e-05,
        0.00012145408254582435
      ],
      "type": "VEC2"
    },
    {
      "bufferView": 0,
      "componentType": 5125,
      "count": 186216,
      "type": "SCALAR"
    }
  ],
  "asset": {
    "extras": {
      "author": "pmanuelian (https://sketchfab.com/pmanuelian)",
      "license": "CC-BY-NC-SA-4.0 (http://creativecommons.org/licenses/by-nc-sa/4.0/)",
      "source": "https://sketchfab.com/3d-models/colossal-statue-of-king-menkaure-6cb0231b26094deea99e3ff53641e031",
      "title": "Colossal statue of King Menkaure"
    },
    "generator": "Sketchfab-15.30.0",
    "version": "2.0"
  },
  "bufferViews": [
    {
      "buffer": 0,
      "byteLength": 744864,
      "name": "floatBufferViews",
      "target": 34963
    },
    {
      "buffer": 0,
      "byteLength": 884256,
      "byteOffset": 744864,
      "byteStride": 8,
      "name": "floatBufferViews",
      "target": 34962
    },
    {
      "buffer": 0,
      "byteLength": 884256,
      "byteOffset": 1629120,
      "byteStride": 12,
      "name": "floatBufferViews",
      "target": 34962
    }
  ],
  "buffers": [
    {
      "byteLength": 2513376,
      "uri": "tf.bin"
    }
  ],
  "extensionsUsed": [
    "KHR_materials_unlit"
  ],
  "images": [
    {
      "uri": "textures/material_0_baseColor.jpeg"
    }
  ],
  "materials": [
    {
      "extensions": {
        "KHR_materials_unlit": {}
      },
      "name": "material_0",
      "pbrMetallicRoughness": {
        "baseColorTexture": {
          "index": 0
        },
        "metallicFactor": 0.0
      }
    }
  ],
  "meshes": [
    {
      "name": "Object_0",
      "primitives": [
        {
          "attributes": {
            "NORMAL": 1,
            "POSITION": 0,
            "TEXCOORD_0": 2,
            "TEXCOORD_1": 3,
            "TEXCOORD_2": 4
          },
          "indices": 5,
          "material": 0,
          "mode": 4
        }
      ]
    }
  ],
  "nodes": [
    {
      "children": [
        1
      ],
      "matrix": [
        1.0,
        0.0,
        0.0,
        0.0,
        0.0,
        2.220446049250313e-16,
        -1.0,
        0.0,
        0.0,
        1.0,
        2.220446049250313e-16,
        0.0,
        0.0,
        0.0,
        0.0,
        1.0
      ],
      "name": "Sketchfab_model"
    },
    {
      "children": [
        2
      ],
      "name": "root"
    },
    {
      "children": [
        3
      ],
      "matrix": [
        1.0,
        0.0,
        0.0,
        0.0,
        0.0,
        2.220446049250313e-16,
        1.0,
        0.0,
        0.0,
        -1.0,
        2.220446049250313e-16,
        0.0,
        0.0,
        0.0,
        0.0,
        1.0
      ],
      "name": "GLTF_SceneRootNode"
    },
    {
      "children": [
        4
      ],
      "name": "_0"
    },
    {
      "mesh": 0,
      "name": "Object_4"
    }
  ],
  "samplers": [
    {
      "magFilter": 9729,
      "minFilter": 9987,
      "wrapS": 10497,
      "wrapT": 10497
    }
  ],
  "scene": 0,
  "scenes": [
    {
      "name": "Sketchfab_Scene",
      "nodes": [
        0
      ]
    }
  ],
  "textures": [
    {
      "sampler": 0,
      "source": 0
    }
  ]
}
